{
  "accessors": [
    {
      "bufferView": 1,
      "componentType": 5126,
      "count": 677,
      "max": [
        4.5447502136230469,
        3.0171000957489014,
        0.27695000171661377
      ],
      "min": [
        -4.5723199844360352,
        -3.2045300006866455,
        -0.12782000005245209
      ],
      "type": "VEC3"
    },
    {
      "bufferView": 1,
      "byteOffset": 8124,
      "componentType": 5126,
      "count": 677,
      "max": [
        1,
        1,
        1
      ],
      "min": [
        -1,
        -1,
        -1
      ],
      "type": "VEC3"
    },
    {
      "bufferView": 0,
      "componentType": 5125,
      "count": 2811,
      "max": [
        676
      ],
      "min": [
        0
      ],
      "type": "SCALAR"
    },
    {
      "bufferView": 1,
      "byteOffset": 16248,
      "componentType": 5126,
      "count": 3504,
      "max": [
        4.2028098106384277,
        1.7910300493240356,
        0.24233999848365784
      ],
      "min": [
        -4.1779499053955078,
        -0.65759998559951782,
        0.015010000206530094
      ],
      "type": "VEC3"
    },
    {
      "bufferView": 1,
      "byteOffset": 58296,
      "componentType": 5126,
      "count": 3504,
      "max": [
        1,
        1,
        1
      ],
      "min": [
        -1,
        -1,
        0
      ],
      "type": "VEC3"
    },
    {
      "bufferView": 0,
      "byteOffset": 11244,
      "componentType": 5125,
      "count": 7809,
      "max": [
        3503
      ],
      "min": [
        0
      ],
      "type": "SCALAR"
    },
    {
      "bufferView": 1,
      "byteOffset": 100344,
      "componentType": 5126,
      "count": 72,
      "max": [
        1,
        1,
        1
      ],
      "min": [
        -1,
        -1,
        -1
      ],
      "type": "VEC3"
    },
    {
      "bufferView": 1,
      "byteOffset": 101208,
      "componentType": 5126,
      "count": 72,
      "max": [
        0.96592593193054199,
        0.96592593193054199,
        1
      ],
      "min": [
        -0.96592593193054199,
        -0.96592593193054199,
        -1
      ],
      "type": "VEC3"
    },
    {
      "bufferView": 0,
      "byteOffset": 42480,
      "componentType": 5125,
      "count": 132,
      "max": [
        71
      ],
      "min": [
        0
      ],
      "type": "SCALAR"
    },
    {
      "bufferView": 1,
      "byteOffset": 102072,
      "componentType": 5126,
      "count": 424,
      "max": [
        1.219230055809021,
        2.8038699626922607,
        31.599660873413086
      ],
      "min": [
        -36.655380249023438,
        -0.87729001045227051,
        -3.0030300617218018
      ],
      "type": "VEC3"
    },
    {
      "bufferView": 1,
      "byteOffset": 107160,
      "componentType": 5126,
      "count": 424,
      "max": [
        0.96592593193054199,
        0.99999797344207764,
        1
      ],
      "min": [
        -0.96592837572097778,
        -0.99999797344207764,
        -1
      ],
      "type": "VEC3"
    },
    {
      "bufferView": 0,
      "byteOffset": 43008,
      "componentType": 5125,
      "count": 912,
      "max": [
        423
      ],
      "min": [
        0
      ],
      "type": "SCALAR"
    },
    {
      "bufferView": 1,
      "byteOffset": 112248,
      "componentType": 5126,
      "count": 348,
      "max": [
        17.722000122070312,
        1.6314200162887573,
        0.023290000855922699
      ],
      "min": [
        10.628049850463867,
        -1.2223399877548218,
        -0.86268997192382812
      ],
      "type": "VEC3"
    },
    {
      "bufferView": 1,
      "byteOffset": 116424,
      "componentType": 5126,
      "count": 348,
      "max": [
        0.96592593193054199,
        0.99424070119857788,
        1
      ],
      "min": [
        -0.96592593193054199,
        -0.99424070119857788,
        -1
      ],
      "type": "VEC3"
    },
    {
      "bufferView": 0,
      "byteOffset": 46656,
      "componentType": 5125,
      "count": 606,
      "max": [
        347
      ],
      "min": [
        0
      ],
      "type": "SCALAR"
    },
    {
      "bufferView": 1,
      "byteOffset": 120600,
      "componentType": 5126,
      "count": 72,
      "max": [
        13.181269645690918,
        1.2045400142669678,
        0.047850001603364944
      ],
      "min": [
        11.181269645690918,
        -0.79545998573303223,
        -0.18840999901294708
      ],
      "type": "VEC3"
    },
    {
      "bufferView": 1,
      "byteOffset": 121464,
      "componentType": 5126,
      "count": 72,
      "max": [
        0.95704799890518188,
        0.95704799890518188,
        1
      ],
      "min": [
        -0.95704799890518188,
        -0.95704799890518188,
        -1
      ],
      "type": "VEC3"
    },
    {
      "bufferView": 0,
      "byteOffset": 49080,
      "componentType": 5125,
      "count": 132,
      "max": [
        71
      ],
      "min": [
        0
      ],
      "type": "SCALAR"
    }
  ],
  "asset": {
    "extras": {
      "author": "tailgunnner (https://sketchfab.com/tailgunnner)",
      "license": "CC-BY-4.0 (http://creativecommons.org/licenses/by/4.0/)",
      "source": "https://sketchfab.com/models/f9ab2c9fd7f44ed984a3d4047127fdb8",
      "title": "Laptop Prop"
    },
    "generator": "Sketchfab-3.18.6",
    "version": "2.0"
  },
  "bufferViews": [
    {
      "buffer": 0,
      "byteLength": 49608,
      "byteOffset": 0,
      "name": "floatBufferViews",
      "target": 34963
    },
    {
      "buffer": 0,
      "byteLength": 122328,
      "byteOffset": 49608,
      "byteStride": 12,
      "name": "floatBufferViews",
      "target": 34962
    }
  ],
  "buffers": [
    {
      "byteLength": 171936,
      "uri": "scene.bin"
    }
  ],
  "materials": [
    {
      "doubleSided": true,
      "emissiveFactor": [
        0,
        0,
        0
      ],
      "name": "Root",
      "pbrMetallicRoughness": {
        "baseColorFactor": [
          0.48951981709999998,
          0.48951981709999998,
          0.48951981709999998,
          1
        ],
        "metallicFactor": 0,
        "roughnessFactor": 0.59999999999999998
      }
    },
    {
      "alphaMode": "BLEND",
      "doubleSided": true,
      "emissiveFactor": [
        0,
        0,
        0
      ],
      "name": "Material.002",
      "pbrMetallicRoughness": {
        "baseColorFactor": [
          1,
          1,
          1,
          0.4748792517
        ],
        "metallicFactor": 0,
        "roughnessFactor": 0.59999999999999998
      }
    }
  ],
  "meshes": [
    {
      "name": "Plane_0",
      "primitives": [
        {
          "attributes": {
            "NORMAL": 1,
            "POSITION": 0
          },
          "indices": 2,
          "material": 0,
          "mode": 4
        }
      ]
    },
    {
      "name": "Plane.001_0",
      "primitives": [
        {
          "attributes": {
            "NORMAL": 4,
            "POSITION": 3
          },
          "indices": 5,
          "material": 0,
          "mode": 4
        }
      ]
    },
    {
      "name": "Cylinder_0",
      "primitives": [
        {
          "attributes": {
            "NORMAL": 7,
            "POSITION": 6
          },
          "indices": 8,
          "material": 0,
          "mode": 4
        }
      ]
    },
    {
      "name": "Cylinder.002_0",
      "primitives": [
        {
          "attributes": {
            "NORMAL": 10,
            "POSITION": 9
          },
          "indices": 11,
          "material": 0,
          "mode": 4
        }
      ]
    },
    {
      "name": "Circle_0",
      "primitives": [
        {
          "attributes": {
            "NORMAL": 13,
            "POSITION": 12
          },
          "indices": 14,
          "material": 0,
          "mode": 4
        }
      ]
    },
    {
      "name": "Circle.001_0",
      "primitives": [
        {
          "attributes": {
            "NORMAL": 16,
            "POSITION": 15
          },
          "indices": 17,
          "material": 1,
          "mode": 4
        }
      ]
    }
  ],
  "nodes": [
    {
      "children": [
        1
      ],
      "name": "RootNode (gltf orientation matrix)",
      "rotation": [
        -0.70710678118654746,
        -0,
        -0,
        0.70710678118654757
      ]
    },
    {
      "children": [
        2
      ],
      "name": "RootNode (model correction matrix)"
    },
    {
      "children": [
        3,
        5,
        7,
        9,
        11,
        13,
        15,
        17
      ],
      "name": "Root"
    },
    {
      "children": [
        4
      ],
      "matrix": [
        -0.29086000000000006,
        0.95517000000000007,
        -0.05519000000000001,
        0,
        -0.77110000000000001,
        -0.19988000000000003,
        0.60452000000000006,
        0,
        0.56639000000000006,
        0.21839000000000003,
        0.7946700000000001,
        0,
        4.0762500000000008,
        2.0770900000000001,
        5.9038600000000008,
        1
      ],
      "name": "Lamp"
    },
    {
      "name": "Lamp"
    },
    {
      "children": [
        6
      ],
      "name": "Plane"
    },
    {
      "mesh": 0,
      "name": "Plane_0"
    },
    {
      "children": [
        8
      ],
      "matrix": [
        1,
        0,
        0,
        0,
        0,
        1,
        0,
        0,
        0,
        0,
        1.17282,
        0,
        0,
        0,
        0,
        1
      ],
      "name": "Plane.001"
    },
    {
      "mesh": 1,
      "name": "Plane.001_0"
    },
    {
      "children": [
        10
      ],
      "matrix": [
        -0.29086000000000006,
        0.95517000000000007,
        -0.05519000000000001,
        0,
        -0.77110000000000001,
        -0.19988000000000003,
        0.60452000000000006,
        0,
        0.56639000000000006,
        0.21839000000000003,
        0.7946700000000001,
        0,
        -7.8806400000000005,
        6.2130799999999997,
        2.0194799999999997,
        1
      ],
      "name": "Lamp.001"
    },
    {
      "name": "Lamp.001"
    },
    {
      "children": [
        12
      ],
      "matrix": [
        0,
        0,
        -0.16094000000000006,
        0,
        0,
        0.28347000000000006,
        0,
        0,
        3.3142999999999998,
        0,
        0,
        0,
        0.0069400000000000026,
        2.6745200000000002,
        0.20032,
        1
      ],
      "name": "Cylinder"
    },
    {
      "mesh": 2,
      "name": "Cylinder_0"
    },
    {
      "children": [
        14
      ],
      "matrix": [
        0,
        0,
        -0.15876000000000004,
        0,
        0,
        0.15876000000000004,
        0,
        0,
        0.25768000000000002,
        0,
        0,
        0,
        -3.6962599999999997,
        2.8020199999999997,
        0.081650000000000014,
        1
      ],
      "name": "Cylinder.002"
    },
    {
      "mesh": 3,
      "name": "Cylinder.002_0"
    },
    {
      "children": [
        16
      ],
      "matrix": [
        0.10846000000000001,
        0,
        0,
        0,
        0,
        -0,
        0.10846000000000001,
        0,
        0,
        -0.10846000000000001,
        -0,
        0,
        0.43023,
        2.9268899999999998,
        5.6102600000000002,
        1
      ],
      "name": "Circle"
    },
    {
      "mesh": 4,
      "name": "Circle_0"
    },
    {
      "children": [
        18
      ],
      "matrix": [
        0.10846000000000001,
        0,
        0,
        0,
        0,
        -0,
        0.10846000000000001,
        0,
        0,
        -0.10846000000000001,
        -0,
        0,
        0.43023,
        2.9268899999999998,
        5.6102600000000002,
        1
      ],
      "name": "Circle.001"
    },
    {
      "mesh": 5,
      "name": "Circle.001_0"
    }
  ],
  "scene": 0,
  "scenes": [
    {
      "name": "OSG_Scene",
      "nodes": [
        0
      ]
    }
  ]
}

